# xmcd
# 
# Track frame offsets:
#     150
#     15445
#     31635
#     46927
#     61417
#     75375
#     90892
#     107265
#     122202
#     135085
#     149545
#     163490
#     178045
#     191832
#     206850
#     219710
#     234077
# 
# Disc length: 3318
# 
# Revision: 0
# Processed by: cddbd v1.5.2PL0 Copyright (c) Steve Scherf et al.
# Submitted via: BonkEnc v1.0.5
# 
DISCID=db0cf411
DTITLE=Glenn Miller - The Immortal Glenn Miller
DYEAR=0
DGENRE=
TTITLE0=Moonlight serenade
TTITLE1=In the mood
TTITLE2=Chattanooga Choo Choo
TTITLE3=My blue heaven
TTITLE4=Juke box saturday night
TTITLE5=Tuxedo junction
TTITLE6=A nightingale sang in berkeley Square
TTITLE7=American Patrol
TTITLE8=Little brown jug
TTITLE9=A string of pearls
TTITLE10=My reverie
TTITLE11=Pagan love song
TTITLE12=Missouri love song
TTITLE13=I've got a Gal in Kalamazoo
TTITLE14=And the angels sing
TTITLE15=Elmers tune
TTITLE16=Pannsylvania 6-5000
EXTD=
EXTT0=
EXTT1=
EXTT2=
EXTT3=
EXTT4=
EXTT5=
EXTT6=
EXTT7=
EXTT8=
EXTT9=
EXTT10=
EXTT11=
EXTT12=
EXTT13=
EXTT14=
EXTT15=
EXTT16=
PLAYORDER=
